<svg xmlns="http://www.w3.org/2000/svg" xmlns:xlink="http://www.w3.org/1999/xlink" width="27" height="27" viewBox="0 0 27 27">
  <defs>
    <clipPath id="clip-path">
      <rect id="Retângulo_17" data-name="Retângulo 17" width="27" height="27" transform="translate(0)" fill="#57544e"/>
    </clipPath>
  </defs>
  <g id="Grupo_21" data-name="Grupo 21" transform="translate(0)">
    <g id="Grupo_20" data-name="Grupo 20" transform="translate(0 0)" clip-path="url(#clip-path)">
      <path id="Caminho_68" data-name="Caminho 68" d="M13.5,2.432c3.6,0,4.032.014,5.455.079a7.469,7.469,0,0,1,2.507.465,4.183,4.183,0,0,1,1.552,1.01,4.181,4.181,0,0,1,1.01,1.552,7.471,7.471,0,0,1,.465,2.507c.065,1.424.079,1.85.079,5.455s-.014,4.032-.079,5.455a7.471,7.471,0,0,1-.465,2.507,4.471,4.471,0,0,1-2.562,2.562,7.469,7.469,0,0,1-2.507.465c-1.423.065-1.85.079-5.455.079s-4.032-.014-5.455-.079a7.469,7.469,0,0,1-2.507-.465,4.183,4.183,0,0,1-1.552-1.01,4.181,4.181,0,0,1-1.01-1.552,7.471,7.471,0,0,1-.465-2.507c-.065-1.424-.079-1.85-.079-5.455s.014-4.032.079-5.455a7.471,7.471,0,0,1,.465-2.507,4.181,4.181,0,0,1,1.01-1.552,4.183,4.183,0,0,1,1.552-1.01,7.469,7.469,0,0,1,2.507-.465c1.424-.065,1.85-.079,5.455-.079M13.5,0C9.834,0,9.374.016,7.934.081A9.91,9.91,0,0,0,4.657.709,6.618,6.618,0,0,0,2.266,2.266,6.617,6.617,0,0,0,.709,4.657,9.908,9.908,0,0,0,.081,7.934C.016,9.374,0,9.834,0,13.5s.016,4.126.081,5.566a9.907,9.907,0,0,0,.628,3.277,6.616,6.616,0,0,0,1.557,2.391,6.618,6.618,0,0,0,2.391,1.557,9.91,9.91,0,0,0,3.277.628c1.44.066,1.9.081,5.566.081s4.126-.016,5.566-.081a9.91,9.91,0,0,0,3.277-.628,6.9,6.9,0,0,0,3.948-3.948,9.907,9.907,0,0,0,.628-3.277c.066-1.44.081-1.9.081-5.566s-.016-4.126-.081-5.566a9.908,9.908,0,0,0-.628-3.277,6.617,6.617,0,0,0-1.557-2.391A6.618,6.618,0,0,0,22.343.709,9.91,9.91,0,0,0,19.066.081C17.626.016,17.166,0,13.5,0" transform="translate(0 0)" fill="#57544e"/>
      <path id="Caminho_69" data-name="Caminho 69" d="M79.73,72.8a6.932,6.932,0,1,0,6.932,6.932A6.932,6.932,0,0,0,79.73,72.8m0,11.432a4.5,4.5,0,1,1,4.5-4.5,4.5,4.5,0,0,1-4.5,4.5" transform="translate(-66.23 -66.231)" fill="#57544e"/>
      <path id="Caminho_70" data-name="Caminho 70" d="M214.8,53.425a1.62,1.62,0,1,1-1.62-1.62,1.62,1.62,0,0,1,1.62,1.62" transform="translate(-192.477 -47.131)" fill="#57544e"/>
    </g>
  </g>
</svg>
